<svg xmlns="http://www.w3.org/2000/svg" viewBox="0 0 48 48"><circle cx="24" cy="24" r="24" fill="#0e2a3b"/><path d="M14 24c4-6.5 9.5-9 15.5-9 4.6 0 7.8 3.4 9.5 9-1.7 5.6-4.9 9-9.5 9-6 0-11.5-2.5-15.5-9z" fill="#e7735a"/><path d="M14 24 7 18.2 9.4 24 7 29.8z" fill="#e7735a"/><path d="M27 18.5c1.6 1.6 2.4 3.4 2.4 5.5s-.8 3.9-2.4 5.5" fill="none" stroke="#0e2a3b" stroke-width="1.6" stroke-linecap="round" opacity=".55"/><circle cx="34.2" cy="22" r="1.7" fill="#0e2a3b"/><path d="M17 21.5c3-1.5 5.5-2 8-2" stroke="#fff" stroke-width="1.3" stroke-linecap="round" opacity=".45"/></svg>